<svg xmlns="http://www.w3.org/2000/svg" viewBox="0 0 200 200" fill="none" stroke="#111111" stroke-width="9" stroke-linejoin="round">
  <path d="M100,14 C116,44 116,72 100,100 C84,72 84,44 100,14 Z"/>
  <path d="M100,14 C116,44 116,72 100,100 C84,72 84,44 100,14 Z" transform="rotate(45 100 100)"/>
  <path d="M100,14 C116,44 116,72 100,100 C84,72 84,44 100,14 Z" transform="rotate(90 100 100)"/>
  <path d="M100,14 C116,44 116,72 100,100 C84,72 84,44 100,14 Z" transform="rotate(135 100 100)"/>
  <path d="M100,14 C116,44 116,72 100,100 C84,72 84,44 100,14 Z" transform="rotate(180 100 100)"/>
  <path d="M100,14 C116,44 116,72 100,100 C84,72 84,44 100,14 Z" transform="rotate(225 100 100)"/>
  <path d="M100,14 C116,44 116,72 100,100 C84,72 84,44 100,14 Z" transform="rotate(270 100 100)"/>
  <path d="M100,14 C116,44 116,72 100,100 C84,72 84,44 100,14 Z" transform="rotate(315 100 100)"/>
</svg>
